<?xml version="1.0" standalone="no"?>
<!DOCTYPE svg PUBLIC "-//W3C//DTD SVG 1.1//EN"
"http://www.w3.org/Graphics/SVG/1.1/DTD/svg11.dtd">
<!-- Creator: fig2dev Version 3.2 Patchlevel 5e -->
<!-- CreationDate: Thu Oct  5 10:40:32 2017 -->
<!-- Magnification: 1.050 -->
<svg	xmlns="http://www.w3.org/2000/svg"
	xmlns:xlink="http://www.w3.org/1999/xlink"
	width="5.2in" height="7.4in"
	viewBox="-811 1026 6281 8907">
<g style="stroke-width:.025in; fill:none">
<!-- Line: box -->
<rect x="2645" y="1039" width="1889" height="8881" rx="0" 
style="stroke:#000000;stroke-width:8;
stroke-linejoin:miter; stroke-linecap:butt;
fill:#00b000;
"/>
<!-- Line -->
<polyline points="1937,1322
2755,1322
" style="stroke:#000000;stroke-width:8;
stroke-linejoin:miter; stroke-linecap:butt;
"/>
<!-- Arrowhead on XXXpoint 1937 1322 - 2897 1322-->
<polygon points="2719 1354
2876 1322
2719 1291
2750 1322
2719 1354

" style="stroke:#000000;stroke-width:8;stroke-miterlimit:8;
fill:#000000;"/>
<!-- Line -->
<polyline points="4346,3496
2409,3496
" style="stroke:#000000;stroke-width:8;
stroke-linejoin:miter; stroke-linecap:butt;
stroke-dasharray:41 41;"/>
<!-- Line -->
<polyline points="4346,3968
2409,3968
" style="stroke:#000000;stroke-width:8;
stroke-linejoin:miter; stroke-linecap:butt;
stroke-dasharray:41 41;"/>
<!-- Line -->
<polyline points="1937,4062
2755,4062
" style="stroke:#000000;stroke-width:8;
stroke-linejoin:miter; stroke-linecap:butt;
"/>
<!-- Arrowhead on XXXpoint 1937 4062 - 2897 4062-->
<polygon points="2719 4094
2876 4062
2719 4031
2750 4062
2719 4094

" style="stroke:#000000;stroke-width:8;stroke-miterlimit:8;
fill:#000000;"/>
<!-- Line -->
<polyline points="1937,7464
2755,7464
" style="stroke:#000000;stroke-width:8;
stroke-linejoin:miter; stroke-linecap:butt;
"/>
<!-- Arrowhead on XXXpoint 1937 7464 - 2897 7464-->
<polygon points="2719 7496
2876 7464
2719 7433
2750 7464
2719 7496

" style="stroke:#000000;stroke-width:8;stroke-miterlimit:8;
fill:#000000;"/>
<!-- Line -->
<polyline points="4346,7370
2409,7370
" style="stroke:#000000;stroke-width:8;
stroke-linejoin:miter; stroke-linecap:butt;
stroke-dasharray:41 41;"/>
<!-- Line -->
<polyline points="803,2173
2198,2520
" style="stroke:#000000;stroke-width:8;
stroke-linejoin:miter; stroke-linecap:butt;
"/>
<!-- Arrowhead on XXXpoint 803 2173 - 2334 2554-->
<polygon points="2154 2540
2314 2549
2169 2479
2192 2518
2154 2540

" style="stroke:#000000;stroke-width:8;stroke-miterlimit:8;
fill:#000000;"/>
<!-- Line: box -->
<rect x="2929" y="4062" width="1322" height="3212" rx="0" 
style="stroke:#000000;stroke-width:8;
stroke-linejoin:miter; stroke-linecap:butt;
fill:#ffff00;
"/>
<!-- Line: box -->
<rect x="2929" y="7464" width="1322" height="2173" rx="0" 
style="stroke:#000000;stroke-width:8;
stroke-linejoin:miter; stroke-linecap:butt;
fill:#ffff00;
"/>
<!-- Line: box -->
<rect x="2929" y="1322" width="1322" height="2551" rx="0" 
style="stroke:#000000;stroke-width:8;
stroke-linejoin:miter; stroke-linecap:butt;
fill:#ffff00;
"/>
<!-- Line -->
<polyline points="519,2456
2218,3887
" style="stroke:#000000;stroke-width:8;
stroke-linejoin:miter; stroke-linecap:butt;
"/>
<!-- Arrowhead on XXXpoint 519 2456 - 2326 3977-->
<polygon points="2169 3886
2310 3964
2209 3838
2214 3882
2169 3886

" style="stroke:#000000;stroke-width:8;stroke-miterlimit:8;
fill:#000000;"/>
<!-- Line -->
<polyline points="661,2362
2211,3424
" style="stroke:#000000;stroke-width:8;
stroke-linejoin:miter; stroke-linecap:butt;
"/>
<!-- Arrowhead on XXXpoint 661 2362 - 2327 3504-->
<polygon points="2162 3428
2310 3492
2198 3377
2206 3421
2162 3428

" style="stroke:#000000;stroke-width:8;stroke-miterlimit:8;
fill:#000000;"/>
<!-- Line -->
<polyline points="755,2267
2201,2969
" style="stroke:#000000;stroke-width:8;
stroke-linejoin:miter; stroke-linecap:butt;
"/>
<!-- Arrowhead on XXXpoint 755 2267 - 2328 3029-->
<polygon points="2153 2979
2309 3020
2181 2922
2196 2964
2153 2979

" style="stroke:#000000;stroke-width:8;stroke-miterlimit:8;
fill:#000000;"/>
<!-- Line -->
<polyline points="850,1984
2193,1636
" style="stroke:#000000;stroke-width:8;
stroke-linejoin:miter; stroke-linecap:butt;
"/>
<!-- Arrowhead on XXXpoint 850 1984 - 2329 1602-->
<polygon points="2164 1676
2309 1607
2149 1615
2186 1638
2164 1676

" style="stroke:#000000;stroke-width:8;stroke-miterlimit:8;
fill:#000000;"/>
<!-- Line -->
<polyline points="850,2078
2188,2078
" style="stroke:#000000;stroke-width:8;
stroke-linejoin:miter; stroke-linecap:butt;
"/>
<!-- Arrowhead on XXXpoint 850 2078 - 2330 2078-->
<polygon points="2152 2110
2309 2078
2152 2047
2183 2078
2152 2110

" style="stroke:#000000;stroke-width:8;stroke-miterlimit:8;
fill:#000000;"/>
<!-- Text -->
<text xml:space="preserve" x="1795" y="1370" fill="#000000"  font-family="Helvetica" font-style="normal" font-weight="normal" font-size="152" text-anchor="end">Chapter 1</text>
<!-- Text -->
<text xml:space="preserve" x="1795" y="4110" fill="#000000"  font-family="Helvetica" font-style="normal" font-weight="normal" font-size="152" text-anchor="end">Chapter 2</text>
<!-- Text -->
<text xml:space="preserve" x="1842" y="7511" fill="#000000"  font-family="Helvetica" font-style="normal" font-weight="normal" font-size="152" text-anchor="end">Chapter 3</text>
<!-- Line: box -->
<rect x="3212" y="2362" width="755" height="472" rx="0" 
style="stroke:#000000;stroke-width:8;
stroke-linejoin:miter; stroke-linecap:butt;
fill:#ffffff;
"/>
<!-- Line -->
<polyline points="4488,8692
4015,8692
" style="stroke:#000000;stroke-width:8;
stroke-linejoin:miter; stroke-linecap:butt;
"/>
<!-- Line -->
<polyline points="4488,8314
4015,8314
" style="stroke:#000000;stroke-width:8;
stroke-linejoin:miter; stroke-linecap:butt;
"/>
<!-- Line -->
<polyline points="4488,7653
4015,7653
" style="stroke:#000000;stroke-width:8;
stroke-linejoin:miter; stroke-linecap:butt;
"/>
<!-- Line -->
<polyline points="4488,6992
4015,6992
" style="stroke:#000000;stroke-width:8;
stroke-linejoin:miter; stroke-linecap:butt;
"/>
<!-- Line -->
<polyline points="4488,6330
4015,6330
" style="stroke:#000000;stroke-width:8;
stroke-linejoin:miter; stroke-linecap:butt;
"/>
<!-- Line -->
<polyline points="4488,5669
4015,5669
" style="stroke:#000000;stroke-width:8;
stroke-linejoin:miter; stroke-linecap:butt;
"/>
<!-- Line -->
<polyline points="4488,4818
4015,4818
" style="stroke:#000000;stroke-width:8;
stroke-linejoin:miter; stroke-linecap:butt;
"/>
<!-- Line -->
<polyline points="4488,4251
4015,4251
" style="stroke:#000000;stroke-width:8;
stroke-linejoin:miter; stroke-linecap:butt;
"/>
<!-- Line -->
<polyline points="4488,2929
4015,2929
" style="stroke:#000000;stroke-width:8;
stroke-linejoin:miter; stroke-linecap:butt;
"/>
<!-- Line -->
<polyline points="4488,2362
4015,2362
" style="stroke:#000000;stroke-width:8;
stroke-linejoin:miter; stroke-linecap:butt;
"/>
<!-- Line -->
<polyline points="4488,1511
4015,1511
" style="stroke:#000000;stroke-width:8;
stroke-linejoin:miter; stroke-linecap:butt;
"/>
<!-- Line: box -->
<rect x="3212" y="2929" width="755" height="755" rx="0" 
style="stroke:#000000;stroke-width:8;
stroke-linejoin:miter; stroke-linecap:butt;
fill:#ffffff;
"/>
<!-- Line: box -->
<rect x="3212" y="8692" width="755" height="755" rx="0" 
style="stroke:#000000;stroke-width:8;
stroke-linejoin:miter; stroke-linecap:butt;
fill:#ffffff;
"/>
<!-- Line: box -->
<rect x="3212" y="8314" width="755" height="283" rx="0" 
style="stroke:#000000;stroke-width:8;
stroke-linejoin:miter; stroke-linecap:butt;
fill:#ffffff;
"/>
<!-- Line: box -->
<rect x="3212" y="7653" width="755" height="566" rx="0" 
style="stroke:#000000;stroke-width:8;
stroke-linejoin:miter; stroke-linecap:butt;
fill:#ffffff;
"/>
<!-- Line: box -->
<rect x="3212" y="6992" width="755" height="94" rx="0" 
style="stroke:#000000;stroke-width:8;
stroke-linejoin:miter; stroke-linecap:butt;
fill:#ffffff;
"/>
<!-- Line: box -->
<rect x="3212" y="6330" width="755" height="566" rx="0" 
style="stroke:#000000;stroke-width:8;
stroke-linejoin:miter; stroke-linecap:butt;
fill:#ffffff;
"/>
<!-- Line: box -->
<rect x="3212" y="5669" width="755" height="566" rx="0" 
style="stroke:#000000;stroke-width:8;
stroke-linejoin:miter; stroke-linecap:butt;
fill:#ffffff;
"/>
<!-- Line: box -->
<rect x="3212" y="4818" width="755" height="755" rx="0" 
style="stroke:#000000;stroke-width:8;
stroke-linejoin:miter; stroke-linecap:butt;
fill:#ffffff;
"/>
<!-- Line: box -->
<rect x="3212" y="4251" width="755" height="472" rx="0" 
style="stroke:#000000;stroke-width:8;
stroke-linejoin:miter; stroke-linecap:butt;
fill:#ffffff;
"/>
<!-- Text -->
<text xml:space="preserve" x="4582" y="8787" fill="#000000"  font-family="Times" font-style="normal" font-weight="normal" font-size="152" text-anchor="start">Paragraph</text>
<!-- Text -->
<text xml:space="preserve" x="4582" y="8409" fill="#000000"  font-family="Times" font-style="normal" font-weight="normal" font-size="152" text-anchor="start">Paragraph</text>
<!-- Text -->
<text xml:space="preserve" x="4582" y="7748" fill="#000000"  font-family="Times" font-style="normal" font-weight="normal" font-size="152" text-anchor="start">Paragraph</text>
<!-- Text -->
<text xml:space="preserve" x="4582" y="7086" fill="#000000"  font-family="Times" font-style="normal" font-weight="normal" font-size="152" text-anchor="start">Paragraph</text>
<!-- Text -->
<text xml:space="preserve" x="4582" y="6425" fill="#000000"  font-family="Times" font-style="normal" font-weight="normal" font-size="152" text-anchor="start">Paragraph</text>
<!-- Text -->
<text xml:space="preserve" x="4582" y="5763" fill="#000000"  font-family="Times" font-style="normal" font-weight="normal" font-size="152" text-anchor="start">Paragraph</text>
<!-- Text -->
<text xml:space="preserve" x="4582" y="4913" fill="#000000"  font-family="Times" font-style="normal" font-weight="normal" font-size="152" text-anchor="start">Paragraph</text>
<!-- Text -->
<text xml:space="preserve" x="4582" y="4346" fill="#000000"  font-family="Times" font-style="normal" font-weight="normal" font-size="152" text-anchor="start">Paragraph</text>
<!-- Text -->
<text xml:space="preserve" x="4582" y="3023" fill="#000000"  font-family="Times" font-style="normal" font-weight="normal" font-size="152" text-anchor="start">Paragraph</text>
<!-- Text -->
<text xml:space="preserve" x="4582" y="2456" fill="#000000"  font-family="Times" font-style="normal" font-weight="normal" font-size="152" text-anchor="start">Paragraph</text>
<!-- Text -->
<text xml:space="preserve" x="4582" y="1606" fill="#000000"  font-family="Times" font-style="normal" font-weight="normal" font-size="152" text-anchor="start">Paragraph</text>
<!-- Ellipse -->
<ellipse transform="translate(0,2054) rotate(-0.00000000)" rx="803" ry="164"
 style="fill:#ffffff;stroke:#ffffff;stroke-width:8;"/>
<!-- Line -->
<polyline points="4346,3023
2409,3023
" style="stroke:#000000;stroke-width:8;
stroke-linejoin:miter; stroke-linecap:butt;
stroke-dasharray:41 41;fill:#ffffff;
"/>
<!-- Line: box -->
<rect x="3212" y="1511" width="755" height="755" rx="0" 
style="stroke:#000000;stroke-width:8;
stroke-linejoin:miter; stroke-linecap:butt;
fill:#ffffff;
"/>
<!-- Line -->
<polyline points="4346,2551
2409,2551
" style="stroke:#000000;stroke-width:8;
stroke-linejoin:miter; stroke-linecap:butt;
stroke-dasharray:41 41;fill:#ffffff;
"/>
<!-- Line -->
<polyline points="4346,1606
2409,1606
" style="stroke:#000000;stroke-width:8;
stroke-linejoin:miter; stroke-linecap:butt;
stroke-dasharray:41 41;fill:#ffffff;
"/>
<!-- Line -->
<polyline points="4346,4440
2409,4440
" style="stroke:#000000;stroke-width:8;
stroke-linejoin:miter; stroke-linecap:butt;
stroke-dasharray:41 41;"/>
<!-- Line -->
<polyline points="4346,4913
2409,4913
" style="stroke:#000000;stroke-width:8;
stroke-linejoin:miter; stroke-linecap:butt;
stroke-dasharray:41 41;"/>
<!-- Line -->
<polyline points="4346,5385
2409,5385
" style="stroke:#000000;stroke-width:8;
stroke-linejoin:miter; stroke-linecap:butt;
stroke-dasharray:41 41;"/>
<!-- Line -->
<polyline points="4346,5858
2409,5858
" style="stroke:#000000;stroke-width:8;
stroke-linejoin:miter; stroke-linecap:butt;
stroke-dasharray:41 41;"/>
<!-- Line -->
<polyline points="4346,6330
2409,6330
" style="stroke:#000000;stroke-width:8;
stroke-linejoin:miter; stroke-linecap:butt;
stroke-dasharray:41 41;"/>
<!-- Line -->
<polyline points="4346,6803
2409,6803
" style="stroke:#000000;stroke-width:8;
stroke-linejoin:miter; stroke-linecap:butt;
stroke-dasharray:41 41;"/>
<!-- Line -->
<polyline points="4346,7842
2409,7842
" style="stroke:#000000;stroke-width:8;
stroke-linejoin:miter; stroke-linecap:butt;
stroke-dasharray:41 41;"/>
<!-- Line -->
<polyline points="4299,8314
2362,8314
" style="stroke:#000000;stroke-width:8;
stroke-linejoin:miter; stroke-linecap:butt;
stroke-dasharray:41 41;"/>
<!-- Line -->
<polyline points="4299,8787
2362,8787
" style="stroke:#000000;stroke-width:8;
stroke-linejoin:miter; stroke-linecap:butt;
stroke-dasharray:41 41;"/>
<!-- Line -->
<polyline points="4299,9259
2362,9259
" style="stroke:#000000;stroke-width:8;
stroke-linejoin:miter; stroke-linecap:butt;
stroke-dasharray:41 41;"/>
<!-- Line -->
<polyline points="4346,2078
2409,2078
" style="stroke:#000000;stroke-width:8;
stroke-linejoin:miter; stroke-linecap:butt;
stroke-dasharray:41 41;"/>
<!-- Text -->
<text xml:space="preserve" x="-519" y="2125" fill="#000000"  font-family="Helvetica" font-style="normal" font-weight="normal" font-size="152" text-anchor="start">Page break</text>
</g>
</svg>
