<?xml version="1.0" standalone="no"?>
<!DOCTYPE svg PUBLIC "-//W3C//DTD SVG 1.1//EN"
"http://www.w3.org/Graphics/SVG/1.1/DTD/svg11.dtd">
<!-- Creator: fig2dev Version 3.2 Patchlevel 5e -->
<!-- CreationDate: Wed Oct 11 16:12:36 2017 -->
<!-- Magnification: 1.050 -->
<svg	xmlns="http://www.w3.org/2000/svg"
	xmlns:xlink="http://www.w3.org/1999/xlink"
	width="4.9in" height="7.4in"
	viewBox="2204 1026 5835 8907">
<g style="stroke-width:.025in; fill:none">
<!-- Line: box -->
<rect x="4346" y="1039" width="1889" height="8881" rx="0" 
style="stroke:#000000;stroke-width:8;
stroke-linejoin:miter; stroke-linecap:butt;
fill:#00b000;
"/>
<!-- Line -->
<polyline points="3637,1322
4456,1322
" style="stroke:#000000;stroke-width:8;
stroke-linejoin:miter; stroke-linecap:butt;
"/>
<!-- Arrowhead on XXXpoint 3637 1322 - 4598 1322-->
<polygon points="4419 1354
4577 1322
4419 1291
4451 1322
4419 1354

" style="stroke:#000000;stroke-width:8;stroke-miterlimit:8;
fill:#000000;"/>
<!-- Line -->
<polyline points="6047,3496
4110,3496
" style="stroke:#000000;stroke-width:8;
stroke-linejoin:miter; stroke-linecap:butt;
stroke-dasharray:41 41;"/>
<!-- Line -->
<polyline points="6047,3968
4110,3968
" style="stroke:#000000;stroke-width:8;
stroke-linejoin:miter; stroke-linecap:butt;
stroke-dasharray:41 41;"/>
<!-- Line -->
<polyline points="3637,4062
4456,4062
" style="stroke:#000000;stroke-width:8;
stroke-linejoin:miter; stroke-linecap:butt;
"/>
<!-- Arrowhead on XXXpoint 3637 4062 - 4598 4062-->
<polygon points="4419 4094
4577 4062
4419 4031
4451 4062
4419 4094

" style="stroke:#000000;stroke-width:8;stroke-miterlimit:8;
fill:#000000;"/>
<!-- Line: box -->
<rect x="4629" y="4062" width="1322" height="3212" rx="0" 
style="stroke:#000000;stroke-width:8;
stroke-linejoin:miter; stroke-linecap:butt;
fill:#ffff00;
"/>
<!-- Line: box -->
<rect x="4629" y="7464" width="1322" height="2173" rx="0" 
style="stroke:#000000;stroke-width:8;
stroke-linejoin:miter; stroke-linecap:butt;
fill:#ffff00;
"/>
<!-- Line: box -->
<rect x="4629" y="1322" width="1322" height="2551" rx="0" 
style="stroke:#000000;stroke-width:8;
stroke-linejoin:miter; stroke-linecap:butt;
fill:#ffff00;
"/>
<!-- Line -->
<polyline points="3117,2593
4703,1891
" style="stroke:#000000;stroke-width:8;
stroke-linejoin:miter; stroke-linecap:butt;
"/>
<!-- Arrowhead on XXXpoint 3117 2593 - 4832 1835-->
<polygon points="4681 1935
4813 1843
4656 1878
4698 1893
4681 1935

" style="stroke:#000000;stroke-width:8;stroke-miterlimit:8;
fill:#000000;"/>
<!-- Line -->
<polyline points="3153,2974
4695,3238
" style="stroke:#000000;stroke-width:8;
stroke-linejoin:miter; stroke-linecap:butt;
"/>
<!-- Arrowhead on XXXpoint 3153 2974 - 4833 3261-->
<polygon points="4651 3262
4812 3258
4662 3201
4687 3236
4651 3262

" style="stroke:#000000;stroke-width:8;stroke-miterlimit:8;
fill:#000000;"/>
<!-- Line -->
<polyline points="3212,2787
4645,2699
" style="stroke:#000000;stroke-width:8;
stroke-linejoin:miter; stroke-linecap:butt;
"/>
<!-- Arrowhead on XXXpoint 3212 2787 - 4786 2691-->
<polygon points="4609 2733
4765 2692
4605 2670
4639 2700
4609 2733

" style="stroke:#000000;stroke-width:8;stroke-miterlimit:8;
fill:#000000;"/>
<!-- Line -->
<polyline points="3637,7464
4456,7464
" style="stroke:#000000;stroke-width:8;
stroke-linejoin:miter; stroke-linecap:butt;
"/>
<!-- Arrowhead on XXXpoint 3637 7464 - 4598 7464-->
<polygon points="4419 7496
4577 7464
4419 7433
4451 7464
4419 7496

" style="stroke:#000000;stroke-width:8;stroke-miterlimit:8;
fill:#000000;"/>
<!-- Text -->
<text xml:space="preserve" x="3496" y="1370" fill="#000000"  font-family="Helvetica" font-style="normal" font-weight="normal" font-size="152" text-anchor="end">Chapter 1</text>
<!-- Text -->
<text xml:space="preserve" x="3496" y="4110" fill="#000000"  font-family="Helvetica" font-style="normal" font-weight="normal" font-size="152" text-anchor="end">Chapter 2</text>
<!-- Text -->
<text xml:space="preserve" x="3543" y="7511" fill="#000000"  font-family="Helvetica" font-style="normal" font-weight="normal" font-size="152" text-anchor="end">Chapter 3</text>
<!-- Line: box -->
<rect x="4913" y="2362" width="755" height="472" rx="0" 
style="stroke:#000000;stroke-width:8;
stroke-linejoin:miter; stroke-linecap:butt;
fill:#ffffff;
"/>
<!-- Line: box -->
<rect x="4913" y="2929" width="755" height="755" rx="0" 
style="stroke:#000000;stroke-width:8;
stroke-linejoin:miter; stroke-linecap:butt;
fill:#ffffff;
"/>
<!-- Line: box -->
<rect x="4913" y="8692" width="755" height="755" rx="0" 
style="stroke:#000000;stroke-width:8;
stroke-linejoin:miter; stroke-linecap:butt;
fill:#ffffff;
"/>
<!-- Line: box -->
<rect x="4913" y="8314" width="755" height="283" rx="0" 
style="stroke:#000000;stroke-width:8;
stroke-linejoin:miter; stroke-linecap:butt;
fill:#ffffff;
"/>
<!-- Line: box -->
<rect x="4913" y="7653" width="755" height="566" rx="0" 
style="stroke:#000000;stroke-width:8;
stroke-linejoin:miter; stroke-linecap:butt;
fill:#ffffff;
"/>
<!-- Line: box -->
<rect x="4913" y="6992" width="755" height="94" rx="0" 
style="stroke:#000000;stroke-width:8;
stroke-linejoin:miter; stroke-linecap:butt;
fill:#ffffff;
"/>
<!-- Line: box -->
<rect x="4913" y="6330" width="755" height="566" rx="0" 
style="stroke:#000000;stroke-width:8;
stroke-linejoin:miter; stroke-linecap:butt;
fill:#ffffff;
"/>
<!-- Line: box -->
<rect x="4913" y="5669" width="755" height="566" rx="0" 
style="stroke:#000000;stroke-width:8;
stroke-linejoin:miter; stroke-linecap:butt;
fill:#ffffff;
"/>
<!-- Line: box -->
<rect x="4913" y="4818" width="755" height="755" rx="0" 
style="stroke:#000000;stroke-width:8;
stroke-linejoin:miter; stroke-linecap:butt;
fill:#ffffff;
"/>
<!-- Line: box -->
<rect x="4913" y="4251" width="755" height="472" rx="0" 
style="stroke:#000000;stroke-width:8;
stroke-linejoin:miter; stroke-linecap:butt;
fill:#ffffff;
"/>
<!-- Text -->
<text xml:space="preserve" x="2220" y="2881" fill="#000000"  font-family="Times" font-style="normal" font-weight="normal" font-size="152" text-anchor="start">Paragraph</text>
<!-- Ellipse -->
<ellipse transform="translate(7228,1582) rotate(-0.00000000)" rx="803" ry="164"
 style="fill:#ffffff;stroke:#ffffff;stroke-width:8;"/>
<!-- Ellipse -->
<ellipse transform="translate(7228,2101) rotate(-0.00000000)" rx="803" ry="164"
 style="fill:#ffffff;stroke:#ffffff;stroke-width:8;"/>
<!-- Ellipse -->
<ellipse transform="translate(7228,2574) rotate(-0.00000000)" rx="803" ry="164"
 style="fill:#ffffff;stroke:#ffffff;stroke-width:8;"/>
<!-- Ellipse -->
<ellipse transform="translate(7228,2999) rotate(-0.00000000)" rx="803" ry="164"
 style="fill:#ffffff;stroke:#ffffff;stroke-width:8;"/>
<!-- Line -->
<polyline points="6566,3023
5055,3023
" style="stroke:#000000;stroke-width:8;
stroke-linejoin:miter; stroke-linecap:butt;
stroke-dasharray:41 41;fill:#ffffff;
"/>
<!-- Line: box -->
<rect x="4913" y="1511" width="755" height="755" rx="0" 
style="stroke:#000000;stroke-width:8;
stroke-linejoin:miter; stroke-linecap:butt;
fill:#ffffff;
"/>
<!-- Line -->
<polyline points="6566,2551
5055,2551
" style="stroke:#000000;stroke-width:8;
stroke-linejoin:miter; stroke-linecap:butt;
stroke-dasharray:41 41;fill:#ffffff;
"/>
<!-- Line -->
<polyline points="6566,4440
5055,4440
" style="stroke:#000000;stroke-width:8;
stroke-linejoin:miter; stroke-linecap:butt;
stroke-dasharray:41 41;fill:#ffffff;
"/>
<!-- Line -->
<polyline points="6566,5149
5055,5149
" style="stroke:#000000;stroke-width:8;
stroke-linejoin:miter; stroke-linecap:butt;
stroke-dasharray:41 41;fill:#ffffff;
"/>
<!-- Line -->
<polyline points="6566,7181
5055,7181
" style="stroke:#000000;stroke-width:8;
stroke-linejoin:miter; stroke-linecap:butt;
stroke-dasharray:41 41;fill:#ffffff;
"/>
<!-- Line -->
<polyline points="6566,6094
5055,6094
" style="stroke:#000000;stroke-width:8;
stroke-linejoin:miter; stroke-linecap:butt;
stroke-dasharray:41 41;fill:#ffffff;
"/>
<!-- Line -->
<polyline points="6566,8456
5055,8456
" style="stroke:#000000;stroke-width:8;
stroke-linejoin:miter; stroke-linecap:butt;
stroke-dasharray:41 41;fill:#ffffff;
"/>
<!-- Line -->
<polyline points="6566,9259
5055,9259
" style="stroke:#000000;stroke-width:8;
stroke-linejoin:miter; stroke-linecap:butt;
stroke-dasharray:41 41;fill:#ffffff;
"/>
<!-- Line -->
<polyline points="6566,1606
5055,1606
" style="stroke:#000000;stroke-width:8;
stroke-linejoin:miter; stroke-linecap:butt;
stroke-dasharray:41 41;fill:#ffffff;
"/>
<!-- Line -->
<polyline points="6566,2078
5055,2078
" style="stroke:#000000;stroke-width:8;
stroke-linejoin:miter; stroke-linecap:butt;
stroke-dasharray:41 41;"/>
<!-- Text -->
<text xml:space="preserve" x="6708" y="1653" fill="#000000"  font-family="Helvetica" font-style="normal" font-weight="normal" font-size="152" text-anchor="start">Page break</text>
<!-- Text -->
<text xml:space="preserve" x="6708" y="2173" fill="#000000"  font-family="Helvetica" font-style="normal" font-weight="normal" font-size="152" text-anchor="start">Page break</text>
<!-- Text -->
<text xml:space="preserve" x="6708" y="2645" fill="#000000"  font-family="Helvetica" font-style="normal" font-weight="normal" font-size="152" text-anchor="start">Page break</text>
<!-- Text -->
<text xml:space="preserve" x="6708" y="3070" fill="#000000"  font-family="Helvetica" font-style="normal" font-weight="normal" font-size="152" text-anchor="start">Page break</text>
</g>
</svg>
