<?xml version="1.0" standalone="no"?>
<!DOCTYPE svg PUBLIC "-//W3C//DTD SVG 1.1//EN"
"http://www.w3.org/Graphics/SVG/1.1/DTD/svg11.dtd">
<!-- Creator: fig2dev Version 3.2 Patchlevel 5e -->
<!-- CreationDate: Thu Oct  5 11:28:20 2017 -->
<!-- Magnification: 1.050 -->
<svg	xmlns="http://www.w3.org/2000/svg"
	xmlns:xlink="http://www.w3.org/1999/xlink"
	width="5.0in" height="3.2in"
	viewBox="503 254 5981 3832">
<g style="stroke-width:.025in; fill:none">
<!-- Line -->
<polyline points="1441,1889
1821,1400
" style="stroke:#000000;stroke-width:8;
stroke-linejoin:miter; stroke-linecap:butt;
"/>
<!-- Arrowhead on XXXpoint 1441 1889 - 1946 1239-->
<polygon points="1825 1471
1933 1256
1751 1414
1817 1405
1825 1471

" style="stroke:#000000;stroke-width:8;stroke-miterlimit:8;
fill:#000000;"/>
<!-- Line -->
<polyline points="1511,2102
1890,2053
" style="stroke:#000000;stroke-width:8;
stroke-linejoin:miter; stroke-linecap:butt;
"/>
<!-- Arrowhead on XXXpoint 1511 2102 - 2093 2029-->
<polygon points="1843 2107
2072 2031
1832 2013
1884 2054
1843 2107

" style="stroke:#000000;stroke-width:8;stroke-miterlimit:8;
fill:#000000;"/>
<!-- Line -->
<polyline points="1511,2244
2016,2748
" style="stroke:#000000;stroke-width:8;
stroke-linejoin:miter; stroke-linecap:butt;
"/>
<!-- Arrowhead on XXXpoint 1511 2244 - 2160 2892-->
<polygon points="1944 2743
2145 2877
2011 2677
2011 2743
1944 2743

" style="stroke:#000000;stroke-width:8;stroke-miterlimit:8;
fill:#000000;"/>
<!-- Line -->
<polyline points="1299,2314
1785,3349
" style="stroke:#000000;stroke-width:8;
stroke-linejoin:miter; stroke-linecap:butt;
"/>
<!-- Arrowhead on XXXpoint 1299 2314 - 1872 3533-->
<polygon points="1720 3320
1864 3514
1805 3280
1783 3343
1720 3320

" style="stroke:#000000;stroke-width:8;stroke-miterlimit:8;
fill:#000000;"/>
<!-- Line -->
<polyline points="3283,1819
4473,1003
" style="stroke:#000000;stroke-width:8;
stroke-linejoin:miter; stroke-linecap:butt;
"/>
<!-- Arrowhead on XXXpoint 3283 1819 - 4642 888-->
<polygon points="4456 1071
4625 899
4403 994
4469 1005
4456 1071

" style="stroke:#000000;stroke-width:8;stroke-miterlimit:8;
fill:#000000;"/>
<!-- Line -->
<polyline points="3779,2031
4382,1811
" style="stroke:#000000;stroke-width:8;
stroke-linejoin:miter; stroke-linecap:butt;
"/>
<!-- Arrowhead on XXXpoint 3779 2031 - 4574 1741-->
<polygon points="4348 1874
4554 1749
4316 1784
4375 1813
4348 1874

" style="stroke:#000000;stroke-width:8;stroke-miterlimit:8;
fill:#000000;"/>
<!-- Line -->
<polyline points="3496,2386
3893,2585
" style="stroke:#000000;stroke-width:8;
stroke-linejoin:miter; stroke-linecap:butt;
"/>
<!-- Arrowhead on XXXpoint 3496 2386 - 4076 2676-->
<polygon points="3824 2602
4057 2666
3866 2518
3887 2581
3824 2602

" style="stroke:#000000;stroke-width:8;stroke-miterlimit:8;
fill:#000000;"/>
<!-- Line -->
<polyline points="929,1732
932,1731
939,1729
951,1725
969,1720
992,1713
1019,1703
1049,1694
1081,1682
1112,1670
1143,1658
1172,1645
1200,1632
1224,1618
1247,1605
1269,1590
1289,1574
1309,1558
1328,1539
1346,1520
1360,1503
1374,1485
1388,1467
1403,1448
1418,1427
1433,1406
1448,1383
1464,1360
1480,1336
1496,1311
1511,1285
1528,1258
1545,1232
1562,1206
1577,1180
1594,1153
1611,1128
1627,1102
1644,1078
1659,1054
1675,1030
1691,1008
1707,987
1722,966
1737,948
1753,929
1772,908
1791,888
1809,868
1829,849
1850,831
1871,813
1893,796
1916,780
1939,765
1962,750
1985,737
2009,724
2032,712
2055,702
2078,691
2100,683
2122,676
2144,669
2165,663
2185,658
2205,654
2225,650
2245,647
2265,645
2285,643
2305,642
2326,641
2347,641
2369,641
2392,642
2415,643
2439,645
2464,647
2488,650
2512,654
2537,657
2562,661
2586,665
2612,669
2637,675
2661,679
2686,684
2711,689
2738,696
2764,701
2790,707
2818,713
2847,720
2876,727
2907,734
2937,743
2969,751
2999,761
3030,770
3061,780
3090,790
3118,802
3145,812
3170,824
3193,835
3215,847
3234,859
3252,872
3267,885
3280,897
3291,911
3299,922
3306,936
3310,950
3313,963
3315,978
3315,994
3313,1009
3309,1025
3303,1042
3296,1060
3288,1077
3277,1095
3266,1111
3253,1128
3238,1146
3223,1163
3206,1179
3189,1194
3171,1210
3152,1225
3132,1238
3112,1252
3091,1266
3070,1278
3048,1290
3025,1301
3001,1313
2977,1324
2951,1336
2924,1346
2896,1358
2868,1369
2838,1379
2808,1390
2777,1400
2747,1409
2717,1419
2685,1428
2656,1438
2625,1446
2597,1455
2569,1462
2541,1469
2515,1477
2490,1484
2466,1490
2443,1497
2419,1504
2390,1511
2362,1520
2334,1528
2308,1538
2282,1546
2257,1554
2232,1563
2208,1572
2187,1581
2166,1589
2149,1597
2132,1606
2117,1614
2104,1622
2093,1629
2083,1636
2076,1644
2071,1651
2067,1656
2064,1662
2061,1669
2060,1675
2061,1681
2062,1688
2066,1694
2070,1700
2074,1708
2080,1714
2088,1719
2096,1725
2106,1732
2115,1737
2125,1742
2137,1746
2149,1752
2160,1756
2173,1759
2186,1763
2200,1766
2214,1770
2229,1773
2246,1776
2263,1778
2282,1780
2302,1782
2323,1783
2345,1784
2368,1784
2392,1784
2417,1782
2443,1781
2468,1779
2494,1776
2519,1772
2545,1767
2573,1762
2599,1757
2627,1751
2648,1744
2670,1738
2693,1732
2718,1724
2742,1717
2768,1709
2794,1699
2822,1690
2850,1679
2878,1668
2908,1656
2938,1644
2969,1630
2999,1616
3029,1603
3061,1588
3091,1573
3122,1559
3151,1544
3182,1528
3211,1512
3239,1497
3268,1481
3296,1465
3323,1449
3352,1433
3377,1417
3402,1401
3428,1384
3455,1367
3481,1350
3508,1332
3535,1313
3564,1293
3592,1274
3620,1253
3650,1232
3679,1211
3708,1189
3737,1168
3766,1146
3796,1124
3825,1102
3854,1080
3882,1058
3909,1037
3937,1016
3963,995
3989,974
4014,954
4039,934
4064,915
4089,895
4113,876
4136,857
4160,838
4184,818
4208,800
4234,781
4259,761
4284,741
4309,721
4334,701
4361,681
4387,661
4413,642
4439,622
4466,603
4492,584
4517,565
4542,548
4567,531
4593,514
4616,497
4639,482
4662,468
4684,454
4706,441
4727,429
4747,417
4767,406
4787,396
4810,385
4832,373
4855,364
4878,354
4901,345
4924,337
4949,328
4974,321
4998,314
5023,308
5048,302
5075,297
5100,291
5126,287
5152,283
5177,280
5204,278
5230,275
5255,272
5280,271
5306,270
5331,268
5357,268
5383,267
5407,267
5433,266
5458,266
5484,266
5511,266
5540,266
5568,267
5597,268
5628,269
5658,270
5689,271
5720,274
5752,276
5782,279
5813,281
5843,284
5872,287
5902,291
5930,296
5956,299
5983,304
6008,308
6032,313
6055,319
6078,324
6099,330
6127,339
6152,347
6177,358
6202,368
6225,379
6248,391
6271,404
6292,417
6313,431
6332,446
6350,460
6367,476
6383,491
6396,506
6409,520
6420,535
6431,549
6439,563
6447,577
6454,591
6458,602
6464,615
6467,626
6470,639
6471,651
6472,664
6472,677
6470,690
6467,703
6462,717
6456,729
6449,742
6440,755
6430,767
6418,780
6405,791
6390,803
6374,814
6356,825
6339,835
6318,846
6297,855
6278,862
6258,871
6238,878
6216,886
6192,894
6166,901
6140,910
6113,918
6083,927
6053,935
6022,943
5989,952
5954,961
5920,970
5885,979
5848,987
5813,997
5776,1005
5739,1015
5702,1023
5666,1033
5630,1041
5593,1049
5558,1059
5522,1067
5487,1077
5451,1085
5417,1095
5384,1103
5351,1111
5318,1120
5283,1129
5250,1139
5214,1148
5180,1159
5144,1168
5107,1179
5070,1189
5034,1201
4996,1211
4959,1223
4921,1234
4885,1246
4848,1257
4811,1269
4775,1280
4740,1291
4705,1302
4671,1314
4639,1324
4606,1336
4576,1346
4545,1357
4517,1366
4489,1377
4461,1386
4435,1397
4409,1406
4374,1419
4341,1433
4308,1445
4276,1459
4244,1472
4213,1485
4182,1499
4152,1512
4123,1526
4095,1539
4069,1552
4044,1565
4019,1577
3997,1589
3977,1601
3959,1611
3942,1622
3927,1631
3914,1639
3903,1648
3892,1656
3884,1664
3879,1669
3875,1673
3870,1677
3867,1682
3865,1687
3863,1690
3862,1694
3862,1697
3862,1701
3863,1704
3865,1707
3868,1710
3872,1712
3877,1714
3882,1716
3889,1717
3897,1719
3904,1719
3913,1720
3923,1720
3933,1720
3945,1720
3958,1719
3970,1718
3984,1717
3997,1715
4012,1713
4028,1711
4044,1708
4060,1704
4078,1701
4097,1698
4118,1693
4141,1688
4166,1682
4192,1676
4219,1670
4247,1664
4277,1656
4308,1648
4341,1640
4374,1631
4409,1623
4444,1613
4480,1605
4517,1595
4554,1586
4592,1576
4628,1567
4666,1558
4703,1548
4740,1539
4775,1530
4811,1522
4845,1513
4879,1506
4912,1498
4944,1490
4976,1484
5007,1478
5041,1470
5074,1464
5106,1458
5139,1453
5171,1446
5204,1441
5237,1437
5270,1432
5303,1427
5336,1424
5369,1421
5401,1418
5434,1416
5465,1414
5496,1413
5526,1412
5555,1412
5585,1412
5612,1412
5638,1414
5665,1415
5690,1417
5714,1420
5737,1422
5759,1426
5782,1430
5809,1436
5838,1442
5865,1450
5892,1459
5920,1468
5947,1479
5973,1490
6000,1503
6025,1516
6049,1530
6072,1544
6093,1560
6113,1574
6132,1590
6148,1606
6162,1622
6176,1637
6186,1653
6196,1669
6204,1685
6211,1699
6215,1714
6219,1729
6221,1744
6222,1760
6222,1777
6221,1793
6218,1809
6214,1826
6208,1843
6202,1860
6195,1877
6186,1892
6176,1907
6165,1922
6154,1937
6141,1950
6128,1963
6114,1974
6099,1985
6083,1995
6068,2005
6051,2013
6033,2022
6014,2030
5994,2037
5972,2044
5950,2051
5926,2056
5901,2062
5874,2068
5846,2072
5818,2076
5788,2080
5758,2083
5728,2087
5697,2089
5666,2091
5635,2092
5604,2094
5573,2095
5542,2096
5511,2096
5480,2097
5453,2097
5425,2097
5398,2097
5369,2097
5339,2097
5309,2097
5278,2097
5246,2096
5213,2096
5181,2096
5147,2096
5113,2096
5079,2096
5045,2096
5012,2096
4978,2097
4945,2097
4913,2097
4881,2098
4850,2099
4820,2100
4791,2101
4763,2102
4735,2103
4708,2106
4682,2108
4651,2110
4621,2113
4591,2115
4561,2119
4532,2123
4501,2128
4472,2132
4443,2137
4414,2142
4386,2148
4359,2153
4332,2159
4307,2165
4283,2172
4261,2178
4240,2183
4220,2190
4202,2196
4185,2202
4171,2208
4157,2214
4144,2220
4132,2226
4121,2232
4112,2238
4103,2244
4095,2250
4088,2257
4081,2264
4077,2270
4072,2278
4069,2285
4067,2292
4066,2299
4065,2306
4066,2313
4067,2321
4069,2328
4071,2335
4075,2342
4078,2349
4083,2355
4089,2363
4094,2370
4102,2380
4113,2389
4123,2400
4136,2410
4150,2420
4164,2431
4180,2443
4198,2453
4216,2464
4234,2474
4253,2483
4272,2493
4291,2501
4310,2509
4329,2516
4349,2522
4364,2527
4381,2531
4397,2534
4414,2538
4433,2541
4452,2544
4472,2548
4493,2551
4515,2553
4538,2555
4561,2557
4584,2559
4608,2560
4633,2562
4657,2563
4681,2564
4706,2565
4731,2566
4756,2567
4782,2570
4806,2570
4830,2571
4856,2573
4882,2574
4910,2575
4938,2576
4967,2578
4998,2580
5027,2582
5058,2584
5088,2586
5119,2588
5148,2592
5177,2595
5206,2598
5232,2601
5258,2604
5282,2607
5306,2612
5328,2616
5348,2620
5367,2624
5390,2630
5409,2637
5429,2643
5448,2650
5466,2659
5483,2668
5498,2678
5512,2687
5526,2698
5539,2708
5549,2720
5560,2730
5568,2742
5575,2753
5583,2764
5588,2775
5593,2786
5598,2797
5603,2810
5607,2824
5611,2837
5614,2851
5616,2866
5618,2881
5618,2896
5618,2912
5618,2928
5616,2943
5613,2958
5609,2972
5605,2985
5600,2999
5592,3012
5585,3023
5577,3034
5568,3044
5559,3054
5547,3064
5535,3074
5521,3083
5506,3093
5489,3103
5471,3111
5453,3120
5433,3128
5412,3135
5390,3143
5367,3149
5344,3154
5321,3160
5297,3164
5273,3168
5253,3170
5233,3172
5212,3174
5190,3176
5168,3177
5144,3180
5119,3181
5093,3181
5066,3182
5039,3182
5012,3182
4982,3182
4954,3181
4924,3181
4895,3180
4866,3177
4837,3176
4809,3174
4781,3172
4752,3170
4725,3168
4699,3165
4671,3163
4645,3160
4619,3156
4592,3153
4565,3149
4538,3146
4510,3142
4481,3138
4453,3132
4425,3127
4395,3122
4367,3117
4338,3110
4309,3104
4281,3098
4253,3090
4226,3084
4200,3077
4175,3070
4150,3063
4127,3056
4104,3048
4083,3041
4064,3034
4045,3025
4026,3018
4005,3008
3984,2998
3964,2988
3945,2977
3925,2965
3906,2954
3887,2941
3868,2928
3850,2915
3833,2900
3815,2887
3798,2872
3781,2858
3764,2844
3749,2830
3733,2815
3717,2802
3702,2788
3687,2774
3672,2761
3656,2747
3639,2732
3623,2719
3605,2704
3586,2688
3567,2674
3546,2658
3525,2642
3504,2626
3482,2611
3460,2595
3437,2580
3415,2565
3392,2551
3370,2538
3348,2525
3325,2514
3304,2502
3283,2492
3262,2482
3240,2473
3218,2465
3196,2456
3173,2449
3149,2440
3125,2433
3100,2427
3074,2419
3047,2413
3021,2408
2995,2402
2969,2396
2942,2392
2916,2388
2891,2384
2866,2380
2841,2376
2817,2373
2794,2370
2771,2367
2748,2364
2725,2362
2701,2359
2677,2356
2653,2353
2628,2351
2603,2349
2578,2347
2554,2345
2529,2344
2506,2343
2482,2342
2460,2341
2438,2341
2419,2341
2401,2342
2383,2343
2367,2345
2352,2346
2339,2349
2324,2351
2310,2355
2298,2360
2286,2365
2276,2370
2266,2376
2258,2384
2249,2391
2243,2400
2237,2408
2233,2416
2228,2426
2226,2435
2224,2445
2223,2454
2223,2464
2224,2473
2225,2482
2227,2493
2230,2504
2235,2516
2240,2529
2247,2541
2255,2554
2264,2567
2276,2581
2288,2594
2302,2606
2317,2619
2332,2630
2350,2642
2368,2653
2388,2662
2409,2671
2427,2679
2446,2685
2467,2692
2488,2699
2511,2705
2535,2711
2561,2718
2587,2724
2615,2729
2642,2734
2670,2740
2698,2745
2726,2749
2753,2753
2780,2758
2806,2761
2830,2764
2854,2766
2877,2769
2900,2771
2924,2773
2948,2775
2971,2777
2995,2780
3018,2781
3041,2783
3064,2784
3086,2785
3108,2786
3130,2787
3150,2789
3170,2790
3189,2791
3207,2792
3224,2793
3240,2794
3255,2796
3270,2797
3288,2800
3307,2803
3324,2805
3342,2809
3360,2813
3378,2817
3396,2823
3413,2828
3428,2834
3443,2840
3457,2847
3470,2854
3482,2860
3493,2869
3504,2876
3513,2885
3524,2894
3533,2904
3542,2916
3549,2928
3556,2940
3562,2953
3566,2965
3569,2978
3571,2991
3571,3003
3569,3016
3567,3028
3563,3039
3558,3050
3551,3062
3544,3074
3534,3086
3524,3099
3511,3111
3498,3123
3483,3135
3466,3147
3449,3159
3433,3170
3415,3180
3396,3190
3376,3198
3357,3207
3340,3213
3322,3219
3304,3226
3286,3231
3265,3237
3244,3243
3222,3248
3198,3253
3175,3257
3151,3262
3126,3267
3102,3271
3077,3274
3053,3277
3028,3280
3004,3283
2981,3286
2958,3288
2935,3290
2913,3291
2891,3292
2868,3293
2845,3294
2822,3295
2797,3296
2773,3296
2748,3297
2724,3297
2699,3297
2674,3297
2648,3297
2624,3297
2601,3297
2578,3297
2556,3297
2535,3296
2515,3296
2495,3296
2477,3296
2459,3296
2434,3296
2410,3296
2386,3297
2363,3298
2341,3299
2320,3301
2300,3303
2283,3307
2267,3311
2255,3315
2245,3319
2238,3325
2233,3332
2230,3338
2230,3345
2234,3354
2238,3364
2246,3374
2256,3385
2268,3397
2283,3408
2299,3420
2317,3432
2334,3443
2354,3453
2373,3462
2394,3470
2414,3478
2430,3482
2448,3486
2465,3490
2483,3495
2502,3498
2523,3500
2544,3503
2565,3505
2588,3506
2612,3508
2635,3509
2658,3510
2681,3510
2704,3511
2727,3511
2749,3511
2772,3511
2795,3511
2817,3511
2841,3511
2866,3511
2891,3512
2917,3512
2942,3513
2970,3516
2996,3518
3021,3520
3047,3523
3071,3527
3095,3531
3117,3537
3137,3543
3154,3549
3171,3556
3186,3565
3200,3574
3208,3582
3216,3590
3224,3598
3230,3608
3235,3618
3239,3629
3244,3640
3246,3652
3247,3665
3248,3678
3247,3691
3245,3706
3241,3719
3236,3733
3231,3746
3225,3760
3216,3774
3207,3787
3197,3800
3186,3814
3173,3825
3161,3838
3146,3849
3131,3861
3114,3871
3097,3882
3077,3892
3057,3903
3035,3913
3011,3924
2985,3934
2959,3945
2932,3954
2902,3964
2873,3973
2843,3983
2811,3991
2780,4000
2748,4008
2717,4015
2684,4022
2654,4028
2622,4034
2592,4039
2562,4045
2532,4049
2503,4053
2475,4057
2446,4060
2417,4064
2389,4067
2360,4069
2330,4071
2301,4072
2270,4073
2241,4073
2211,4072
2180,4071
2150,4069
2119,4066
2090,4062
2060,4058
2032,4053
2005,4047
1977,4040
1952,4033
1927,4025
1903,4015
1880,4006
1858,3994
1837,3983
1816,3971
1796,3958
1776,3943
1756,3927
1736,3910
1717,3892
1698,3872
1678,3851
1659,3830
1640,3807
1623,3783
1604,3758
1586,3733
1569,3707
1552,3680
1537,3654
1521,3627
1506,3600
1491,3573
1478,3547
1465,3521
1453,3496
1441,3469
1430,3444
1420,3420
1409,3395
1399,3370
1388,3344
1379,3318
1370,3292
1360,3266
1351,3238
1341,3212
1332,3185
1322,3158
1314,3130
1304,3103
1296,3076
1289,3049
1280,3024
1273,2999
1266,2975
1258,2952
1252,2930
1246,2909
1239,2888
1234,2869
1228,2850
1223,2832
1215,2808
1208,2786
1201,2764
1193,2742
1186,2721
1177,2700
1169,2680
1161,2660
1151,2640
1141,2622
1130,2604
1120,2587
1109,2572
1098,2557
1086,2543
1074,2531
1060,2518
1047,2507
1034,2496
1020,2486
1004,2475
987,2465
970,2454
949,2444
925,2432
900,2419
873,2407
844,2393
813,2380
782,2366
752,2353
725,2341
702,2331
776,2362
" style="stroke:#b00000;stroke-width:8;
stroke-linejoin:bevel; stroke-linecap:butt;
"/>
<!-- Arrowhead on XXXpoint 702 2331 - 646 2308-->
<polygon points="823 2347
665 2317
798 2406
781 2365
823 2347

" style="stroke:#b00000;stroke-width:8;stroke-miterlimit:8;
fill:#b00000;"/>
<!-- Text -->
<text xml:space="preserve" x="519" y="2173" fill="#000000"  font-family="Times" font-style="normal" font-weight="normal" font-size="227" text-anchor="start">Poem</text>
<!-- Text -->
<text xml:space="preserve" x="1937" y="1110" fill="#000000"  font-family="Times" font-style="normal" font-weight="normal" font-size="227" text-anchor="start">Section</text>
<!-- Text -->
<text xml:space="preserve" x="2220" y="2173" fill="#000000"  font-family="Times" font-style="normal" font-weight="normal" font-size="227" text-anchor="start">Section</text>
<!-- Text -->
<text xml:space="preserve" x="2220" y="3095" fill="#000000"  font-family="Times" font-style="normal" font-weight="normal" font-size="227" text-anchor="start">Section</text>
<!-- Text -->
<text xml:space="preserve" x="1866" y="3803" fill="#000000"  font-family="Times" font-style="normal" font-weight="normal" font-size="227" text-anchor="start">Section</text>
<!-- Text -->
<text xml:space="preserve" x="4913" y="685" fill="#000000"  font-family="Times" font-style="normal" font-weight="normal" font-size="227" text-anchor="start">Strophe</text>
<!-- Text -->
<text xml:space="preserve" x="4701" y="1819" fill="#000000"  font-family="Times" font-style="normal" font-weight="normal" font-size="227" text-anchor="start">Strophe</text>
<!-- Text -->
<text xml:space="preserve" x="4134" y="2953" fill="#000000"  font-family="Times" font-style="normal" font-weight="normal" font-size="227" text-anchor="start">Strophe</text>
</g>
</svg>
